<svg width="22" height="22" viewBox="0 0 22 22" fill="none" xmlns="http://www.w3.org/2000/svg">
<path d="M12.8327 2.91342C12.8327 3.92594 12.0119 4.74674 10.9994 4.74674C9.98684 4.74674 9.16602 3.92594 9.16602 2.91342C9.16602 1.90088 9.98684 1.08008 10.9994 1.08008C12.0119 1.08008 12.8327 1.90088 12.8327 2.91342Z" stroke="black" stroke-width="2" stroke-linecap="round" stroke-linejoin="round"/>
<path d="M11 4.74707V8.28278" stroke="black" stroke-width="2" stroke-linecap="round" stroke-linejoin="round"/>
<path d="M13.75 16.8926C13.75 16.8926 12.8857 17.8092 11 17.8092C9.11429 17.8092 8.25 16.8926 8.25 16.8926" stroke="black" stroke-width="2" stroke-linecap="round" stroke-linejoin="round"/>
<path d="M7.92215 13.4224C7.70519 13.4224 7.5293 13.2466 7.5293 13.0296C7.5293 12.8126 7.70519 12.6367 7.92215 12.6367" stroke="black" stroke-width="2" stroke-linecap="round" stroke-linejoin="round"/>
<path d="M7.92188 13.4224C8.13884 13.4224 8.31473 13.2466 8.31473 13.0296C8.31473 12.8126 8.13884 12.6367 7.92188 12.6367" stroke="black" stroke-width="2" stroke-linecap="round" stroke-linejoin="round"/>
<path d="M14.0765 13.4224C13.8595 13.4224 13.6836 13.2466 13.6836 13.0296C13.6836 12.8126 13.8595 12.6367 14.0765 12.6367" stroke="black" stroke-width="2" stroke-linecap="round" stroke-linejoin="round"/>
<path d="M14.0762 13.4224C14.2931 13.4224 14.469 13.2466 14.469 13.0296C14.469 12.8126 14.2931 12.6367 14.0762 12.6367" stroke="black" stroke-width="2" stroke-linecap="round" stroke-linejoin="round"/>
<path d="M2.35742 17.7772V11.4915C2.35742 9.75574 3.76453 8.34863 5.50028 8.34863H16.5003C18.2361 8.34863 19.6431 9.75574 19.6431 11.4915V17.7772C19.6431 19.513 18.2361 20.9201 16.5003 20.9201H5.50028C3.76453 20.9201 2.35742 19.513 2.35742 17.7772Z" stroke="black" stroke-width="2" stroke-linecap="round" stroke-linejoin="round"/>
</svg>
