<svg width="18" height="18" viewBox="0 0 18 18" fill="none" xmlns="http://www.w3.org/2000/svg">
<circle cx="9" cy="9" r="5.5" fill="#333333" stroke="#333333"/>
<path d="M8.27696 10.0861C8.27696 9.76312 8.30655 9.50202 8.36575 9.30283C8.42777 9.10094 8.51374 8.94078 8.62368 8.82234C8.73362 8.70121 8.88302 8.58412 9.07188 8.47106C9.27766 8.34186 9.43693 8.21131 9.54968 8.07941C9.66244 7.94751 9.71741 7.79542 9.71459 7.62315C9.71459 7.49125 9.68217 7.3755 9.61734 7.27591C9.5525 7.17362 9.46371 7.09556 9.35095 7.04172C9.24101 6.9852 9.11698 6.95559 8.97886 6.95289C8.84355 6.95559 8.71811 6.9852 8.60254 7.04172C8.48696 7.09825 8.39253 7.1817 8.31924 7.29206C8.24595 7.39973 8.20648 7.52894 8.20085 7.67968H7C7.00564 7.31359 7.09725 7.00538 7.27484 6.75505C7.45243 6.50202 7.68922 6.31359 7.9852 6.18977C8.284 6.06326 8.61804 6 8.98732 6C9.38196 6 9.73009 6.06326 10.0317 6.18977C10.3362 6.31629 10.5729 6.49933 10.7421 6.7389C10.914 6.97577 11 7.25707 11 7.58277C11 7.9004 10.9211 8.17227 10.7632 8.39838C10.6082 8.6218 10.3827 8.8183 10.0867 8.98789C9.92037 9.0821 9.78788 9.17766 9.68922 9.27456C9.59056 9.37147 9.51586 9.48452 9.46512 9.61373C9.4172 9.74293 9.39323 9.9004 9.39323 10.0861V10.175H8.27696V10.0861ZM8.15011 11.3217C8.14729 11.2005 8.17689 11.0888 8.2389 10.9865C8.30374 10.8816 8.39112 10.7995 8.50106 10.7402C8.61099 10.681 8.7308 10.6514 8.86047 10.6514C8.9845 10.6514 9.10007 10.681 9.20719 10.7402C9.31431 10.7995 9.40028 10.8816 9.46512 10.9865C9.52995 11.0888 9.56237 11.2005 9.56237 11.3217C9.56237 11.4455 9.52995 11.5599 9.46512 11.6649C9.40028 11.7672 9.31431 11.8493 9.20719 11.9112C9.10007 11.9704 8.9845 12 8.86047 12C8.7308 12 8.61099 11.9704 8.50106 11.9112C8.39112 11.8493 8.30374 11.7672 8.2389 11.6649C8.17689 11.5599 8.14729 11.4455 8.15011 11.3217Z" fill="#C4C4C4"/>
</svg>
