<svg width="24" height="25" viewBox="0 0 24 25" fill="none" xmlns="http://www.w3.org/2000/svg">
<path d="M9 5.5H7C5.89543 5.5 5 6.39543 5 7.5V17.5C5 18.6046 5.89543 19.5 7 19.5H17C18.1046 19.5 19 18.6046 19 17.5V14.5" stroke="black" stroke-linecap="round" stroke-linejoin="round"/>
<path d="M15.2969 7.10265L9.34921 12.2007C9.12756 12.3907 9 12.668 9 12.9599V15.2192C9 15.8698 9.61139 16.3472 10.2425 16.1894L12.7313 15.5672C12.9071 15.5232 13.0677 15.4323 13.1959 15.3041L18.2929 10.2071C18.6834 9.81658 18.6834 9.18342 18.2929 8.79289L16.6548 7.1548C16.2853 6.78531 15.6936 6.76259 15.2969 7.10265Z" stroke="black" stroke-linejoin="round"/>
</svg>
