<svg width="36" height="36" viewBox="0 0 36 36" fill="none" xmlns="http://www.w3.org/2000/svg">
<mask id="path-1-inside-1_17_609" fill="white">
<path fill-rule="evenodd" clip-rule="evenodd" d="M17.421 28.1496C17.8319 27.8599 18.4054 27.8836 18.8049 28.1887C19.4887 28.7108 20.3103 29 21.2842 29C24.1242 29 27.4624 25.6248 29.0002 21.6289C26.6328 21.2159 24.8409 19.2752 24.8409 16.9434C24.8409 14.7119 26.482 12.8386 28.6981 12.3196C27.4551 10.1147 25.3297 9 22.9166 9C21.5283 9 20.2352 9.58776 19.1506 10.6001C18.7498 10.9741 18.1047 10.9741 17.7039 10.6001C16.6193 9.58776 15.3262 9 13.9379 9C10.1062 9 7 12.2272 7 17.75C7 23.2728 10.9224 29 14.7541 29C15.7521 29 16.6454 28.6963 17.421 28.1496Z"/>
</mask>
<path fill-rule="evenodd" clip-rule="evenodd" d="M17.421 28.1496C17.8319 27.8599 18.4054 27.8836 18.8049 28.1887C19.4887 28.7108 20.3103 29 21.2842 29C24.1242 29 27.4624 25.6248 29.0002 21.6289C26.6328 21.2159 24.8409 19.2752 24.8409 16.9434C24.8409 14.7119 26.482 12.8386 28.6981 12.3196C27.4551 10.1147 25.3297 9 22.9166 9C21.5283 9 20.2352 9.58776 19.1506 10.6001C18.7498 10.9741 18.1047 10.9741 17.7039 10.6001C16.6193 9.58776 15.3262 9 13.9379 9C10.1062 9 7 12.2272 7 17.75C7 23.2728 10.9224 29 14.7541 29C15.7521 29 16.6454 28.6963 17.421 28.1496Z" fill="#02DC6B"/>
<path d="M18.8049 28.1887L18.1981 28.9834L18.1981 28.9834L18.8049 28.1887ZM17.421 28.1496L16.8448 27.3322L16.8448 27.3322L17.421 28.1496ZM29.0002 21.6289L29.9334 21.9881C30.0409 21.7089 30.0177 21.3964 29.8703 21.1361C29.7229 20.8758 29.4667 20.6952 29.172 20.6438L29.0002 21.6289ZM28.6981 12.3196L28.9261 13.2932C29.2325 13.2215 29.4872 13.0097 29.6137 12.7216C29.7402 12.4335 29.7237 12.1026 29.5692 11.8285L28.6981 12.3196ZM19.1506 10.6001L18.4683 9.86901L18.4683 9.86901L19.1506 10.6001ZM17.7039 10.6001L17.0216 11.3311L17.0216 11.3311L17.7039 10.6001ZM19.4118 27.3939C18.6824 26.8369 17.6301 26.7786 16.8448 27.3322L17.9972 28.9669C18.0115 28.9567 18.0405 28.9441 18.0852 28.9456C18.1307 28.947 18.171 28.9628 18.1981 28.9834L19.4118 27.3939ZM21.2842 28C20.5236 28 19.9166 27.7793 19.4118 27.3939L18.1981 28.9834C19.0608 29.6423 20.0969 30 21.2842 30V28ZM28.0669 21.2698C27.3475 23.1391 26.2068 24.8581 24.9335 26.0959C23.6359 27.3573 22.3294 28 21.2842 28V30C23.079 30 24.8616 28.9551 26.3276 27.5299C27.8178 26.0812 29.1151 24.1146 29.9334 21.9881L28.0669 21.2698ZM29.172 20.6438C27.2261 20.3043 25.8409 18.7333 25.8409 16.9434H23.8409C23.8409 19.8171 26.0394 22.1275 28.8283 22.6141L29.172 20.6438ZM25.8409 16.9434C25.8409 15.2296 27.1082 13.719 28.9261 13.2932L28.47 11.3459C25.8557 11.9582 23.8409 14.1942 23.8409 16.9434H25.8409ZM22.9166 10C24.9964 10 26.7744 10.9435 27.8269 12.8107L29.5692 11.8285C28.1358 9.28585 25.663 8 22.9166 8V10ZM19.8329 11.3311C20.768 10.4583 21.8265 10 22.9166 10V8C21.2301 8 19.7024 8.71718 18.4683 9.86901L19.8329 11.3311ZM17.0216 11.3311C17.8066 12.0638 19.0479 12.0638 19.8329 11.3311L18.4683 9.86901C18.4659 9.87121 18.4536 9.88061 18.4273 9.88061C18.4009 9.88061 18.3886 9.87121 18.3862 9.86901L17.0216 11.3311ZM13.9379 10C15.028 10 16.0865 10.4583 17.0216 11.3311L18.3862 9.86901C17.1521 8.71718 15.6244 8 13.9379 8V10ZM8 17.75C8 15.1725 8.72366 13.2279 9.79829 11.9465C10.8653 10.6741 12.3201 10 13.9379 10V8C11.724 8 9.70981 8.93948 8.26583 10.6614C6.82944 12.3742 6 14.8047 6 17.75H8ZM14.7541 28C13.325 28 11.649 26.8929 10.2641 24.8794C8.90833 22.9081 8 20.2907 8 17.75H6C6 20.7322 7.05288 23.7397 8.61624 26.0128C10.1505 28.2435 12.3515 30 14.7541 30V28ZM16.8448 27.3322C16.2304 27.7654 15.5368 28 14.7541 28V30C15.9673 30 17.0604 29.6272 17.9972 28.9669L16.8448 27.3322Z" fill="black" mask="url(#path-1-inside-1_17_609)"/>
<ellipse cx="2" cy="3" rx="2" ry="3" transform="matrix(0.724025 0.689774 -0.724025 0.689774 19.8281 3)" fill="black"/>
</svg>
