<svg width="24" height="25" viewBox="0 0 24 25" fill="none" xmlns="http://www.w3.org/2000/svg">
<path d="M11 18.5H6C5.44772 18.5 5 18.0523 5 17.5V7.5C5 6.94772 5.44772 6.5 6 6.5H9.46482C9.79917 6.5 10.1114 6.6671 10.2969 6.9453L11.7031 9.0547C11.8886 9.3329 12.2008 9.5 12.5352 9.5H18C18.5523 9.5 19 9.94772 19 10.5V13.5" stroke="black" stroke-linecap="round" stroke-linejoin="round"/>
<path d="M16 14.5L17.0333 16.0777L18.8532 16.5729L17.672 18.0433L17.7634 19.9271L16 19.258L14.2366 19.9271L14.328 18.0433L13.1468 16.5729L14.9667 16.0777L16 14.5Z" stroke="black" stroke-linejoin="round"/>
</svg>
