<svg width="24" height="25" viewBox="0 0 24 25" fill="none" xmlns="http://www.w3.org/2000/svg">
<path d="M5.5 8.62311V16.4617C5.5 16.7946 5.32164 17.1019 5.03263 17.2671C4.20677 17.739 4.54165 19 5.49284 19H17.5072C18.4584 19 18.7932 17.739 17.9674 17.2671C17.6784 17.1019 17.5 16.7946 17.5 16.4617V8.62311C17.5 8.54134 17.4908 8.45999 17.4678 8.38151C17.0687 7.0152 15.3847 4.5 11.5 4.5C7.61526 4.5 5.93132 7.0152 5.53216 8.38151C5.50923 8.45999 5.5 8.54134 5.5 8.62311Z" stroke="black"/>
<mask id="path-2-inside-1_17_765" fill="white">
<path d="M15 18.5C15 19.5609 14.6313 20.5783 13.9749 21.3284C13.3185 22.0786 12.4283 22.5 11.5 22.5C10.5717 22.5 9.6815 22.0786 9.02513 21.3284C8.36875 20.5783 8 19.5609 8 18.5L11.5 18.5H15Z"/>
</mask>
<path d="M15 18.5C15 19.5609 14.6313 20.5783 13.9749 21.3284C13.3185 22.0786 12.4283 22.5 11.5 22.5C10.5717 22.5 9.6815 22.0786 9.02513 21.3284C8.36875 20.5783 8 19.5609 8 18.5L11.5 18.5H15Z" stroke="black" stroke-width="2" mask="url(#path-2-inside-1_17_765)"/>
</svg>
