<svg width="36" height="36" viewBox="0 0 36 36" fill="none" xmlns="http://www.w3.org/2000/svg">
<path fill-rule="evenodd" clip-rule="evenodd" d="M29 19H8V16C8 11.5817 11.5817 8 16 8H21C25.4183 8 29 11.5817 29 16V19Z" fill="#02DC6B"/>
<path d="M16 8.5H21C25.1421 8.5 28.5 11.8579 28.5 16V27C28.5 28.933 26.933 30.5 25 30.5H12C10.067 30.5 8.5 28.933 8.5 27V16C8.5 11.8579 11.8579 8.5 16 8.5Z" stroke="black"/>
<path d="M8 19H28.5" stroke="black"/>
<circle cx="15" cy="13" r="1" fill="black"/>
<circle cx="22" cy="13" r="1" fill="black"/>
<path d="M11.6464 9.35355L12 9.70711L12.7071 9L12.3536 8.64645L11.6464 9.35355ZM9.35355 5.64645C9.15829 5.45118 8.84171 5.45118 8.64645 5.64645C8.45118 5.84171 8.45118 6.15829 8.64645 6.35355L9.35355 5.64645ZM12.3536 8.64645L9.35355 5.64645L8.64645 6.35355L11.6464 9.35355L12.3536 8.64645Z" fill="black"/>
<path d="M25.3536 9.35355L25 9.70711L24.2929 9L24.6464 8.64645L25.3536 9.35355ZM27.6464 5.64645C27.8417 5.45118 28.1583 5.45118 28.3536 5.64645C28.5488 5.84171 28.5488 6.15829 28.3536 6.35355L27.6464 5.64645ZM24.6464 8.64645L27.6464 5.64645L28.3536 6.35355L25.3536 9.35355L24.6464 8.64645Z" fill="black"/>
</svg>
