<svg width="36" height="36" viewBox="0 0 36 36" fill="none" xmlns="http://www.w3.org/2000/svg">
<path fill-rule="evenodd" clip-rule="evenodd" d="M30.373 22C28.6858 27.2225 23.784 31 18 31C12.2159 31 7.31407 27.2225 5.62695 22H30.373Z" fill="#02DC6B"/>
<circle cx="18" cy="18" r="12.5" stroke="black"/>
<path d="M23.5 18C23.5 21.5343 22.8378 24.7097 21.7887 26.9829C20.7199 29.2984 19.3443 30.5 18 30.5C16.6557 30.5 15.2801 29.2984 14.2113 26.9829C13.1622 24.7097 12.5 21.5343 12.5 18C12.5 14.4657 13.1622 11.2903 14.2113 9.01714C15.2801 6.70156 16.6557 5.5 18 5.5C19.3443 5.5 20.7199 6.70156 21.7887 9.01714C22.8378 11.2903 23.5 14.4657 23.5 18Z" stroke="black"/>
<path d="M6 14H30" stroke="black"/>
<path d="M6 22H30" stroke="black"/>
</svg>
