<svg width="24" height="24" viewBox="0 0 24 24" fill="none" xmlns="http://www.w3.org/2000/svg">
<path d="M16.5 11C16.5 11.5701 16.2324 12.3907 15.7683 13.3543C15.3129 14.2997 14.701 15.3179 14.082 16.2612C13.4641 17.2027 12.8453 18.0603 12.3806 18.683C12.2374 18.8748 12.109 19.0441 12 19.1864C11.891 19.0441 11.7626 18.8748 11.6194 18.683C11.1547 18.0603 10.5359 17.2027 9.91803 16.2612C9.29902 15.3179 8.6871 14.2997 8.23172 13.3543C7.76763 12.3907 7.5 11.5701 7.5 11C7.5 8.51472 9.51472 6.5 12 6.5C14.4853 6.5 16.5 8.51472 16.5 11Z" stroke="#9A9A9A"/>
<circle cx="12" cy="11" r="2" stroke="#9A9A9A"/>
</svg>
