<svg width="36" height="36" viewBox="0 0 36 36" fill="none" xmlns="http://www.w3.org/2000/svg">
<circle cx="16" cy="12" r="3.5" stroke="black"/>
<path d="M22.5 17.3659C22.5 21.9614 19.4969 25.5 16 25.5C12.5031 25.5 9.5 21.9614 9.5 17.3659C9.5 15.546 9.97836 13.8727 10.7791 12.5243L13.7259 12.5242L16 12.5241C16.8051 12.5241 17.2893 12.5172 17.7386 12.5107C18.5135 12.4996 19.1843 12.49 21.2184 12.5201C22.0206 13.8692 22.5 15.5441 22.5 17.3659Z" fill="#02DC6B" stroke="black"/>
<path d="M6 10L10.5 12.5" stroke="black"/>
<path d="M16 18V23" stroke="black"/>
<path d="M5 17.5H10" stroke="black"/>
<path d="M27 17L22 17" stroke="black"/>
<path d="M6.5 24.5L10.5 22" stroke="black"/>
<path d="M25.5 10L21.5 12.5" stroke="black"/>
<circle cx="21" cy="25" r="5.5" fill="white" stroke="black"/>
<path d="M18.5 25L20 26.5L23.5 23.5" stroke="black"/>
<path d="M25 29L28.5 32" stroke="black"/>
</svg>
