<svg width="36" height="36" viewBox="0 0 36 36" fill="none" xmlns="http://www.w3.org/2000/svg">
<path d="M16.8688 16.6154L17.2651 15.5908C17.3319 15.4173 17.4495 15.2681 17.6024 15.1627C17.7553 15.0572 17.9365 15.0005 18.1221 15H18.8778C19.0635 15.0005 19.2446 15.0572 19.3976 15.1627C19.5505 15.2681 19.6681 15.4173 19.7349 15.5908L20.1312 16.6154L21.4767 17.3908L22.5642 17.2246C22.7453 17.2 22.9296 17.2298 23.0937 17.3104C23.2578 17.3909 23.3942 17.5185 23.4858 17.6769L23.8544 18.3231C23.9489 18.484 23.9924 18.6699 23.9793 18.8561C23.9661 19.0423 23.8969 19.2202 23.7807 19.3662L23.1079 20.2246V21.7754L23.7991 22.6338C23.9153 22.7798 23.9845 22.9577 23.9977 23.1439C24.0109 23.3301 23.9673 23.516 23.8728 23.6769L23.5042 24.3231C23.4127 24.4815 23.2762 24.609 23.1121 24.6896C22.948 24.7701 22.7637 24.8 22.5826 24.7754L21.4951 24.6092L20.1496 25.3846L19.7534 26.4092C19.6865 26.5827 19.5689 26.7319 19.416 26.8374C19.2631 26.9428 19.0819 26.9994 18.8963 27H18.1221C17.9365 26.9994 17.7553 26.9428 17.6024 26.8374C17.4495 26.7319 17.3319 26.5827 17.2651 26.4092L16.8688 25.3846L15.5233 24.6092L14.4358 24.7754C14.2547 24.8 14.0704 24.7701 13.9063 24.6896C13.7422 24.609 13.6057 24.4815 13.5142 24.3231L13.1456 23.6769C13.0511 23.516 13.0076 23.3301 13.0207 23.1439C13.0339 22.9577 13.1031 22.7798 13.2193 22.6338L13.892 21.7754V20.2246L13.2008 19.3662C13.0847 19.2202 13.0155 19.0423 13.0023 18.8561C12.9891 18.6699 13.0327 18.484 13.1271 18.3231L13.4958 17.6769C13.5873 17.5185 13.7238 17.3909 13.8879 17.3104C14.052 17.2298 14.2363 17.2 14.4173 17.2246L15.5048 17.3908L16.8688 16.6154ZM16.6568 21C16.6568 21.3651 16.7649 21.7221 16.9674 22.0257C17.17 22.3293 17.4578 22.5659 17.7946 22.7056C18.1314 22.8454 18.502 22.8819 18.8596 22.8107C19.2171 22.7394 19.5455 22.5636 19.8033 22.3054C20.0611 22.0472 20.2366 21.7183 20.3078 21.3602C20.3789 21.002 20.3424 20.6309 20.2029 20.2935C20.0634 19.9562 19.8271 19.6678 19.524 19.465C19.2209 19.2621 18.8645 19.1538 18.5 19.1538C18.0112 19.1538 17.5423 19.3483 17.1967 19.6946C16.851 20.0408 16.6568 20.5104 16.6568 21Z" stroke="black" stroke-linecap="round" stroke-linejoin="round"/>
<path d="M6 9C6 7.34315 7.34315 6 9 6H28C29.6569 6 31 7.34315 31 9V13H6V9Z" fill="#02DC6B"/>
<rect x="6.5" y="6.5" width="24" height="23" rx="2.5" stroke="black"/>
<circle cx="10" cy="10" r="1" fill="black"/>
<circle cx="13" cy="10" r="1" fill="black"/>
<circle cx="16" cy="10" r="1" fill="black"/>
</svg>
