<svg width="72" height="72" viewBox="0 0 72 72" fill="none" xmlns="http://www.w3.org/2000/svg">
<circle cx="32" cy="45" r="18" fill="#02DC6B"/>
<path d="M41 9L42.8906 14.1094L48 16L42.8906 17.8906L41 23L39.1094 17.8906L34 16L39.1094 14.1094L41 9Z" fill="#02DC6B"/>
<path d="M60 23L62.1607 28.8393L68 31L62.1607 33.1607L60 39L57.8393 33.1607L52 31L57.8393 28.8393L60 23Z" fill="#02DC6B"/>
<path fill-rule="evenodd" clip-rule="evenodd" d="M31 53.9517V56H33V53.9482C36.2078 53.6224 38 51.796 38 49.502C38 46.5997 35.0802 45.6466 33.3053 45.2182L33 45.1389V39.7796C34.5205 40.01 35.6114 40.8342 35.7557 42.1124H37.771C37.698 39.9668 35.7733 38.3186 33 38.0412V35H31V38.078C28.3622 38.4415 26.448 40.0496 26.458 42.3481C26.4466 44.4471 28.0725 45.6894 30.6718 46.3963L31 46.479V52.1763C29.4648 51.9477 28.2494 51.1348 28.1069 49.6948H26C26.1762 52.0218 28.0044 53.6554 31 53.9517ZM33 52.1698C34.76 51.8969 35.9847 50.888 35.9847 49.4592C35.9847 48.0336 34.6173 47.4385 33 46.9889V52.1698ZM31 44.6204V39.8105C29.431 40.1054 28.4598 41.046 28.4504 42.2624C28.46 43.6257 29.8188 44.2754 31 44.6204Z" fill="white"/>
</svg>
